<svg xmlns="http://www.w3.org/2000/svg" viewBox="0 0 1000 1000">
   <rect fill="#000" width="1000" height="1000" rx="200"/>
   <path fill="#FBE0D0" d="M183.33,825L183.33,425C183.33,375,133.33,325,83.33,325L83.33,725C83.33,775,133.33,825,183.33,825zM216.67,825L216.67,425C216.67,375,266.67,325,316.67,325L316.67,725C316.67,775,266.67,825,216.67,825zM783.33,825L783.33,425C783.33,375,733.33,325,683.33,325L683.33,725C683.33,775,733.33,825,783.33,825zM816.67,825L816.67,425C816.67,375,866.67,325,916.67,325L916.67,725C916.67,775,866.67,825,816.67,825zM483.33,825L483.33,275C483.33,225,433.33,175,383.33,175L383.33,725C383.33,775,433.33,825,483.33,825zM516.67,825L516.67,275C516.67,225,566.67,175,616.67,175L616.67,725C616.67,775,566.67,825,516.67,825z" />
</svg>