<svg width="301" height="301" viewBox="0 0 301 301" fill="none" xmlns="http://www.w3.org/2000/svg">
<path d="M138.476 3.22019C145.945 -0.969229 155.055 -0.969233 162.524 3.22018L180.82 13.4836C184.403 15.4933 188.432 16.5729 192.539 16.6238L213.516 16.8836C222.079 16.9896 229.969 21.5449 234.342 28.9073L245.055 46.9438C247.153 50.4755 250.103 53.4251 253.634 55.5229L271.671 66.2363C279.033 70.6094 283.588 78.4994 283.695 87.0619L283.954 108.039C284.005 112.146 285.085 116.175 287.095 119.758L297.358 138.054C301.547 145.523 301.547 154.633 297.358 162.102L287.095 180.398C285.085 183.981 284.005 188.01 283.954 192.117L283.695 213.094C283.588 221.657 279.033 229.547 271.671 233.92L253.634 244.633C250.103 246.731 247.153 249.681 245.055 253.212L234.342 271.249C229.969 278.611 222.079 283.167 213.516 283.273L192.539 283.532C188.432 283.583 184.403 284.663 180.82 286.673L162.524 296.936C155.055 301.125 145.945 301.125 138.476 296.936L120.18 286.673C116.597 284.663 112.568 283.583 108.461 283.532L87.4839 283.273C78.9213 283.167 71.0313 278.611 66.6582 271.249L55.9448 253.212C53.847 249.681 50.8974 246.731 47.3657 244.633L29.3291 233.92C21.9668 229.547 17.4115 221.657 17.3055 213.094L17.0456 192.117C16.9948 188.01 15.9151 183.981 13.9055 180.398L3.64206 162.102C-0.547349 154.633 -0.547353 145.523 3.64206 138.054L13.9055 119.758C15.9151 116.175 16.9948 112.146 17.0456 108.039L17.3055 87.062C17.4115 78.4995 21.9668 70.6095 29.3291 66.2364L47.3657 55.5229C50.8974 53.4251 53.847 50.4755 55.9448 46.9438L66.6582 28.9073C71.0313 21.5449 78.9213 16.9896 87.4838 16.8836L108.461 16.6238C112.568 16.5729 116.597 15.4933 120.18 13.4836L138.476 3.22019Z" fill="#000000"/>
</svg>
